<!-- Generated by IcoMoon.io -->
<svg version="1.1" xmlns="http://www.w3.org/2000/svg" width="1024" height="1024" viewBox="0 0 1024 1024">
<title>share2</title>
<g id="icomoon-ignore">
</g>
<path fill="#5474fd" d="M1010.814 966.728l-53.050 53.050-293.062-293.044c-16.373 14.752-34.565 28.116-54.018 39.569l-1.566 0.852c-17.774 10.614-38.571 20.804-60.217 29.305l-2.947 1.020c-19.8 7.864-43.141 14.445-67.301 18.641l-2.169 0.312c-21.621 3.974-46.526 6.273-71.959 6.324h-0.045c-0.934 0.008-2.038 0.013-3.143 0.013-56.895 0-110.965-12.092-159.781-33.847l2.498 0.994c-50.483-22.239-93.609-52.016-130.11-88.431l0.008 0.008c-36.289-36.358-65.711-79.586-86.145-127.561l-1.002-2.648c-19.97-45.975-31.587-99.525-31.587-155.789 0-0.708 0.002-1.416 0.006-2.124v0.109c-0.009-1.024-0.015-2.234-0.015-3.446 0-224.142 181.703-405.845 405.845-405.845 1.212 0 2.422 0.005 3.631 0.016l-0.185-0.001c0.546-0.003 1.192-0.004 1.838-0.004 56.324 0 109.935 11.617 158.568 32.585l-2.602-0.998c50.563 21.508 93.745 50.926 130.113 87.176l-0.011-0.011c36.36 36.52 66.129 79.638 87.35 127.396l1.074 2.706c20.76 46.381 32.851 100.52 32.851 157.482 0 1.035-0.004 2.070-0.012 3.103l0.001-0.159c-0.062 25.484-2.354 50.389-6.689 74.585l0.384-2.581c-4.543 26.352-11.123 49.691-19.813 71.975l0.86-2.504c-9.549 24.612-19.726 45.403-31.409 65.198l1.12-2.051c-12.312 21.017-25.676 39.209-40.689 55.886l0.268-0.303 293.116 293.044zM38.175 413.48c-0.008 0.895-0.013 1.952-0.013 3.011 0 99.566 40.574 189.656 106.090 254.636l0.024 0.024c32.883 32.904 71.846 59.728 115.059 78.643l2.413 0.942c41.412 18.364 89.718 29.056 140.521 29.056 0.777 0 1.554-0.003 2.33-0.007l-0.119 0.001c0.816 0.007 1.78 0.011 2.745 0.011 50.191 0 97.883-10.697 140.921-29.936l-2.193 0.876c87.736-39.36 156.457-108.081 194.844-193.398l0.973-2.419c18.363-40.877 29.059-88.603 29.059-138.828 0-0.93-0.004-1.859-0.011-2.788l0.001 0.142c0.004-0.606 0.006-1.324 0.006-2.042 0-50.861-10.691-99.224-29.949-142.966l0.894 2.276c-19.911-45.607-46.728-84.561-79.59-117.478l0.005 0.005c-32.456-32.549-71.030-58.979-113.852-77.421l-2.363-0.906c-40.949-17.58-88.608-27.803-138.654-27.803-0.991 0-1.982 0.004-2.971 0.012l0.152-0.001c-0.657-0.004-1.434-0.007-2.211-0.007-50.695 0-99 10.231-142.963 28.741l2.425-0.906c-89.063 37.336-158.482 106.755-194.934 193.448l-0.884 2.369c-17.581 41.481-27.799 89.721-27.799 140.347 0 0.838 0.003 1.676 0.008 2.513l-0.001-0.129z"></path>
</svg>
