<!-- Generated by IcoMoon.io -->
<svg version="1.1" xmlns="http://www.w3.org/2000/svg" width="1024" height="1024" viewBox="0 0 1024 1024">
<title>share2</title>
<g id="icomoon-ignore">
</g>
<path fill="#ff6363" d="M512-7.731c0.706-0.004 1.542-0.006 2.378-0.006 281.017 0 508.826 227.809 508.826 508.826 0 0.836-0.002 1.671-0.006 2.506v-0.128c0.004 0.706 0.006 1.542 0.006 2.378 0 281.017-227.809 508.826-508.826 508.826-0.836 0-1.671-0.002-2.506-0.006h0.128c-0.706 0.004-1.542 0.006-2.378 0.006-281.017 0-508.826-227.809-508.826-508.826 0-0.836 0.002-1.671 0.006-2.506v0.128c-0.004-0.711-0.006-1.553-0.006-2.395 0-281.007 227.801-508.809 508.809-508.809 0.842 0 1.684 0.002 2.525 0.006h-0.13zM512 973.875c1.096 0.010 2.391 0.015 3.688 0.015 65.047 0 126.895-13.696 182.817-38.362l-2.902 1.142c57.981-25.368 107.64-58.881 150.165-99.76l-0.166 0.159c40.705-42.367 74.216-92.023 98.326-146.753l1.275-3.246c23.524-53.041 37.22-114.911 37.22-179.981 0-1.274-0.005-2.546-0.016-3.817l0.001 0.195c0.009-1.064 0.014-2.322 0.014-3.581 0-65.083-13.696-126.968-38.362-182.929l1.143 2.907c-25.397-57.973-58.906-107.627-99.764-150.17l0.163 0.171c-42.373-40.694-92.027-74.203-146.751-98.324l-3.248-1.277c-53.054-23.524-114.939-37.219-180.022-37.219-1.259 0-2.517 0.005-3.773 0.015l0.192-0.001c-1.076-0.009-2.349-0.014-3.623-0.014-65.069 0-126.94 13.696-182.886 38.363l2.905-1.143c-57.974 25.389-107.63 58.9-150.169 99.763l0.17-0.162c-40.722 42.358-74.235 92.017-98.328 146.757l-1.273 3.242c-23.524 53.020-37.22 114.868-37.22 179.915 0 1.297 0.005 2.593 0.016 3.887l-0.001-0.199c-0.010 1.113-0.015 2.428-0.015 3.744 0 65.028 13.697 126.857 38.363 182.76l-1.142-2.901c25.356 57.986 58.87 107.646 99.759 150.164l-0.158-0.165c42.354 40.729 92.014 74.244 146.759 98.33l3.24 1.271c52.993 23.514 114.81 37.204 179.824 37.204 1.329 0 2.656-0.006 3.982-0.017l-0.203 0.001zM768.802 321.075c4.434-5.869 11.399-9.623 19.241-9.623 0.436 0 0.869 0.012 1.299 0.034l-0.060-0.003c0.075-0.001 0.163-0.001 0.252-0.001 8.853 0 16.847 3.675 22.54 9.583l0.009 0.010c4.454 6.036 7.129 13.623 7.129 21.834 0 0.334-0.004 0.667-0.013 0.999l0.001-0.049c0.020 0.368 0.031 0.798 0.031 1.231 0 7.844-3.754 14.812-9.563 19.205l-0.060 0.044-350.413 340.719c-1.651 3.197-4.711 5.467-8.336 6l-0.061 0.007c-3.233 0.726-6.958 1.159-10.777 1.194h-0.026c-0.219 0.003-0.478 0.004-0.738 0.004-4.406 0-8.71-0.436-12.872-1.268l0.417 0.070c-3.693-0.52-6.761-2.797-8.368-5.945l-0.029-0.063-136.806-136.738c-5.916-5.66-9.594-13.617-9.594-22.434 0-0.129 0.001-0.258 0.002-0.386v0.020c-0.021-0.377-0.033-0.819-0.033-1.264 0-7.835 3.755-14.793 9.564-19.172l0.061-0.044c4.434-5.869 11.399-9.623 19.241-9.623 0.436 0 0.869 0.012 1.299 0.034l-0.060-0.003c0.073-0.001 0.158-0.001 0.244-0.001 8.855 0 16.851 3.675 22.548 9.583l0.009 0.010 115.2 115.2 328.806-319.147z"></path>
</svg>
