<!-- Generated by IcoMoon.io -->
<svg version="1.1" xmlns="http://www.w3.org/2000/svg" width="1024" height="1024" viewBox="0 0 1024 1024">
<title>share2</title>
<g id="icomoon-ignore">
</g>
<path fill="#00a2ff" d="M1017.162 489.802c0.002 0.245 0.004 0.534 0.004 0.824 0 10.497-1.699 20.597-4.838 30.039l0.194-0.672c-3.337 9.798-8.074 18.28-14.064 25.71l0.124-0.159c-5.791 7.361-12.685 13.54-20.492 18.387l-0.334 0.193c-7.315 4.416-15.764 8.33-24.645 11.299l-0.906 0.262c4.208 6.938 8.102 14.981 11.235 23.395l0.326 1c2.947 8.267 4.651 17.804 4.651 27.738 0 0.456-0.004 0.911-0.011 1.366l0.001-0.069c-0.038 9.989-1.734 19.569-4.827 28.497l0.186-0.618c-3.242 9.79-7.156 18.238-11.888 26.139l0.327-0.588c-6.291 6.253-13.122 11.978-20.412 17.093l-0.498 0.331c-6.704 4.836-14.348 9.123-22.464 12.504l-0.757 0.28c4.396 7.31 8.308 15.757 11.293 24.63l0.269 0.92c2.906 8.31 4.602 17.89 4.641 27.861v0.018c0.007 0.398 0.011 0.867 0.011 1.337 0 9.921-1.704 19.444-4.835 28.292l0.183-0.593c-3.441 9.398-7.336 17.437-11.918 25.014l0.357-0.636c-6.024 7.592-12.91 14.131-20.602 19.612l-0.307 0.208c-7.215 5.165-15.845 8.847-25.193 10.406l-0.357 0.049c5.674 6.976 10.381 15.040 13.736 23.775l0.204 0.603c2.947 8.267 4.651 17.804 4.651 27.738 0 0.456-0.004 0.911-0.011 1.366l0.001-0.069c-0.079 11.786-2.637 22.954-7.178 33.037l0.208-0.517c-4.592 10.827-10.862 20.078-18.588 27.887l0.008-0.008c-8.688 7.324-18.642 13.555-29.409 18.275l-0.783 0.306c-10.1 4.407-21.867 6.972-34.234 6.972-0.21 0-0.421-0.001-0.631-0.002h-306.623c-13.281-0.205-26.068-1.886-38.338-4.884l1.176 0.243c-17.12-3.94-31.852-8.728-46.002-14.632l1.871 0.692c-18.504-5.606-33.9-11.525-48.771-18.388l2.328 0.963q-23.238-10.455-46.46-19.819-27.863-11.561-54.503-23.222c-11.122-5.759-24.072-9.842-37.767-11.507l-0.55-0.055h-211.439v-452.955l18.614-2.312h181.132c0.475 0.006 1.035 0.009 1.597 0.009 13.048 0 25.701-1.696 37.748-4.881l-1.027 0.231c13.808-4.123 25.807-10.483 36.226-18.749l-0.22 0.169c18.123-10.506 33.681-21.253 48.331-33.079l-0.715 0.558q26.674-20.909 63.868-51.101c45.293-36.857 76.368-89.668 84.64-149.753l0.138-1.221q12.734-90.574 12.767-104.514c0.020-9.81 2.602-19.013 7.112-26.98l-0.143 0.274c4.383-8.252 10.696-14.962 18.362-19.694l0.219-0.126c6.854-5.664 14.997-10.049 23.901-12.648l0.477-0.119c7.294-2.145 15.682-3.413 24.355-3.485h0.040c13.21 0.026 26.013 1.718 38.227 4.875l-1.065-0.234c13.793 3.883 25.573 11.157 34.801 20.876l0.031 0.033c11.298 11.834 20.054 26.199 25.324 42.15l0.227 0.792c5.969 19.127 9.407 41.12 9.407 63.915 0 2.434-0.039 4.86-0.117 7.275l0.009-0.352c0.001 0.38 0.002 0.83 0.002 1.28 0 26.195-2.115 51.895-6.183 76.941l0.367-2.742c-4.347 27.053-9.601 50.17-16.146 72.739l1.051-4.23c-4.816 22.925-10.821 42.744-18.32 61.812l0.896-2.586q-10.455 26.723-17.425 45.287h315.887c0.649-0.015 1.414-0.024 2.181-0.024 12.127 0 23.754 2.139 34.525 6.061l-0.702-0.223c11.144 4.506 20.745 10.41 29.175 17.641l-0.14-0.117c7.42 7.388 13.334 16.283 17.244 26.187l0.181 0.519c3.686 9.67 5.821 20.854 5.821 32.536 0 0.401-0.003 0.801-0.008 1.201l0.001-0.061zM928.9 538.574c0.254 0.004 0.555 0.006 0.856 0.006 7.192 0 14.086-1.28 20.465-3.623l-0.412 0.132c5.765-2 10.534-5.644 13.881-10.367l0.059-0.087c4.401-4.39 8.232-9.348 11.378-14.754l0.184-0.342c2.935-5.367 4.662-11.757 4.662-18.551 0-0.446-0.007-0.89-0.022-1.333l0.002 0.064c0-0.040 0-0.086 0-0.133 0-12.745-5.347-24.242-13.92-32.368l-0.020-0.019c-9.015-8.661-21.284-13.995-34.798-13.995-0.831 0-1.658 0.020-2.479 0.060l0.116-0.004h-378.533l13.94-27.863q65.007-160.173 65.007-257.718 0-76.651-25.55-89.418c-12.039-6.957-26.27-11.542-41.453-12.745l-0.35-0.022c-7.817 0.918-14.898 3.391-21.156 7.105l0.247-0.136c-7.844 2.827-13.445 9.991-13.937 18.525l-0.003 0.056q0 13.94-2.329 46.46c-2.455 27.509-7.385 52.783-14.64 77.053l0.701-2.73c-9.54 33.085-21.002 61.576-34.942 88.581l1.265-2.697c-15.442 30.334-36.132 55.848-61.123 76.304l-0.416 0.33q-39.523 32.553-66.197 54.503c-14.731 12.458-31.032 24.329-48.167 34.985l-1.761 1.020c-13.347 8.279-28.731 15.38-44.988 20.513l-1.455 0.396c-14.378 4.424-30.906 6.971-48.028 6.971-0.261 0-0.523-0.001-0.784-0.002h-160.166v376.37h171.834c15.74 1.008 30.359 4.757 43.737 10.774l-0.795-0.32q26.674 10.455 66.197 26.707 18.564 9.315 40.646 19.819c11.464 5.691 25.658 11.583 40.251 16.617l2.691 0.807q23.123 6.97 41.802 12.783c9.65 3.382 20.785 5.485 32.366 5.81l0.155 0.003h306.556c0.235 0.004 0.513 0.007 0.791 0.007 7.323 0 14.244-1.716 20.385-4.768l-0.267 0.12c6.255-3.116 11.615-6.979 16.258-11.567l-0.006 0.006c4.826-3.39 8.475-8.165 10.396-13.744l0.058-0.195c2.18-5.51 3.457-11.892 3.485-18.569v-0.012c0.013-0.418 0.020-0.909 0.020-1.403 0-6.63-1.287-12.96-3.625-18.753l0.12 0.337c-2.622-5.871-6.143-10.877-10.446-15.087l-0.009-0.009c-4.484-4.491-9.903-8.046-15.94-10.35l-0.311-0.104c-5.962-2.212-12.849-3.491-20.034-3.491-0.308 0-0.615 0.002-0.921 0.007l0.046-0.001h-4.575v-39.556h53.413c6.69-0.039 13.070-1.314 18.94-3.609l-0.36 0.124c6.349-2.408 11.768-5.963 16.251-10.454l0.001-0.001c3.020-4.527 6.112-9.847 8.888-15.353l0.411-0.899c2.925-5.379 4.644-11.779 4.644-18.581s-1.72-13.202-4.748-18.789l0.103 0.208c-3.199-6.42-6.284-11.739-9.655-16.855l0.373 0.603c-4.515-3.005-9.835-6.096-15.336-8.879l-0.916-0.42c-5.395-2.849-11.779-4.556-18.554-4.641h-16.295v-39.474h58.071c6.69-0.039 13.070-1.314 18.94-3.609l-0.36 0.124c6.366-2.42 11.798-5.998 16.282-10.518l0.003-0.003c4.58-4.638 8.442-9.998 11.398-15.892l0.163-0.36c2.858-5.394 4.566-11.779 4.641-18.557v-0.024c0.003-0.21 0.005-0.458 0.005-0.706 0-7.351-1.715-14.302-4.767-20.473l0.121 0.27c-2.678-5.672-6.609-10.365-11.457-13.868l-0.104-0.072c-4.643-4.571-10.002-8.432-15.89-11.396l-0.362-0.165c-5.405-2.854-11.801-4.561-18.589-4.641h-18.606v-39.49h67.353z"></path>
</svg>
