<svg xmlns="http://www.w3.org/2000/svg" width="57" height="57" viewBox="0 0 57 57">
  <defs>
    <style>
      .cls-1 {
        fill: #5474fd;
        fill-rule: evenodd;
      }
    </style>
  </defs>
  <path id="_" data-name="" class="cls-1" d="M56.266,53.812l-2.953,2.953L37,40.453a18.615,18.615,0,0,1-3.094,2.25,24.161,24.161,0,0,1-3.516,1.688,20.23,20.23,0,0,1-3.867,1.055,23.511,23.511,0,0,1-4.008.352,21.872,21.872,0,0,1-8.93-1.828,23.517,23.517,0,0,1-7.242-4.922A22.551,22.551,0,0,1,1.492,31.8,22.264,22.264,0,0,1-.266,23.016,22.591,22.591,0,0,1,22.516.234,22.313,22.313,0,0,1,31.3,1.992a22.673,22.673,0,0,1,7.242,4.852,23.649,23.649,0,0,1,4.922,7.242,21.926,21.926,0,0,1,1.828,8.93,23.7,23.7,0,0,1-.351,4.008,20.475,20.475,0,0,1-1.055,3.867A24.491,24.491,0,0,1,42.2,34.406a18.664,18.664,0,0,1-2.25,3.094L56.266,53.812h0ZM2.125,23.016A19.963,19.963,0,0,0,8.031,37.359a20.88,20.88,0,0,0,6.539,4.43,19.723,19.723,0,0,0,7.945,1.617,19.241,19.241,0,0,0,7.875-1.617,21.315,21.315,0,0,0,10.9-10.9,19.268,19.268,0,0,0,1.617-7.875,19.769,19.769,0,0,0-1.617-7.945,21.009,21.009,0,0,0-4.43-6.539,20.252,20.252,0,0,0-6.469-4.36,20.019,20.019,0,0,0-7.875-1.547A20.524,20.524,0,0,0,14.57,4.172a20.038,20.038,0,0,0-10.9,10.9,20.494,20.494,0,0,0-1.547,7.945h0Z"/>
</svg>
