<svg xmlns="http://www.w3.org/2000/svg" width="60" height="60" viewBox="0 0 60 60">
  <defs>
    <style>
      .cls-1 {
        fill: #ff6363;
        fill-rule: evenodd;
      }
    </style>
  </defs>
  <path id="_" data-name="" class="cls-1" d="M30-.453A29.814,29.814,0,0,1,59.953,29.5,29.814,29.814,0,0,1,30,59.453,29.814,29.814,0,0,1,.047,29.5,29.813,29.813,0,0,1,30-.453h0Zm0,57.516a26.569,26.569,0,0,0,10.758-2.18,29.64,29.64,0,0,0,8.789-5.836,29.689,29.689,0,0,0,5.836-8.789A26.588,26.588,0,0,0,57.563,29.5a26.6,26.6,0,0,0-2.18-10.758,29.719,29.719,0,0,0-5.836-8.789,29.723,29.723,0,0,0-8.789-5.836A26.6,26.6,0,0,0,30,1.937a26.588,26.588,0,0,0-10.758,2.18,29.7,29.7,0,0,0-8.789,5.836,29.636,29.636,0,0,0-5.836,8.789A26.569,26.569,0,0,0,2.437,29.5a26.553,26.553,0,0,0,2.18,10.758,29.607,29.607,0,0,0,5.836,8.789,29.612,29.612,0,0,0,8.789,5.836A26.554,26.554,0,0,0,30,57.062h0Zm15.047-38.25a1.409,1.409,0,0,1,1.2-.562,1.834,1.834,0,0,1,1.336.562A2.168,2.168,0,0,1,48,20.148a1.41,1.41,0,0,1-.562,1.2L26.906,41.312a0.656,0.656,0,0,1-.492.352,3.155,3.155,0,0,1-.633.07,3.826,3.826,0,0,1-.773-0.07,0.649,0.649,0,0,1-.492-0.352L16.5,33.3a1.818,1.818,0,0,1-.562-1.336,1.406,1.406,0,0,1,.562-1.2,1.409,1.409,0,0,1,1.2-.562,1.835,1.835,0,0,1,1.336.562l6.75,6.75,19.266-18.7h0Z"/>
</svg>
